<svg id="Layer_1" data-name="Layer 1" xmlns="http://www.w3.org/2000/svg" xmlns:xlink="http://www.w3.org/1999/xlink" viewBox="0 0 545.55 364.54"><defs><style>.cls-1{fill:none;}.cls-2{fill:#dfe0f0;}.cls-3{fill:#ffe13f;}.cls-4{clip-path:url(#clip-path);}.cls-5{fill:url(#linear-gradient);}.cls-6{fill:#1b4298;}</style><clipPath id="clip-path" transform="translate(-27.22 -117.73)"><path class="cls-1" d="M446.31,183.26c-76-48.33-225.55-48.33-301.49,0,0,0-12.06,180.84,150.6,267.39l.13.08.14-.08C458.35,364.1,446.31,183.26,446.31,183.26Z"/></clipPath><linearGradient id="linear-gradient" x1="173.88" y1="122.38" x2="418.59" y2="471.86" gradientUnits="userSpaceOnUse"><stop offset="0" stop-color="#fff"/><stop offset="0.72" stop-color="#fd0"/></linearGradient></defs><path class="cls-2" d="M475.09,175.51l-.34-5.33-.35-5.31-9-5.73c-45.22-28.53-107.6-41.27-169.87-41.41-62.3.14-124.66,12.88-169.85,41.4l-9,5.71-.7,10.6c0,.52-.26,4-.26,10.31a362,362,0,0,0,24.89,128.63c22.24,56.74,65.22,119.9,144.54,162.13l9.95,5.76,10.45-5.6c79.49-42.21,122.57-105.48,144.85-162.33s24.87-107.62,24.89-128.62C475.32,179.77,475.15,176.45,475.09,175.51Z" transform="translate(-27.22 -117.73)"/><path class="cls-3" d="M464.62,176.19l-.34-5.33L459.79,168c-42.61-27-103.42-39.7-164.24-39.78C234.72,128.3,173.91,141,131.32,168l-4.48,2.85-.35,5.29c0,.21-.23,3.62-.23,9.6,0,20.15,2.44,69.64,24.16,124.8s63,116,140.06,156.9l-.19-.09,5,2.92,5.3-2.85c77-40.92,118.39-101.81,140-156.91s24.15-104.64,24.17-124.79C464.84,179.77,464.64,176.38,464.62,176.19Z" transform="translate(-27.22 -117.73)"/><g class="cls-4"><path class="cls-5" d="M298,185h18.25V144.32H298Zm0,131.41h18.25V256.17H298Zm-21.9-67.53h18.25V188.64H276.09Zm43.8,0h16.43V188.64H319.89Zm0-63.88h16.43V144.32H319.89ZM232.28,316.4h16.43V256.17H232.28Zm87.61,0h16.43V256.17H319.89Zm-63.88,0h16.43V256.17H256ZM256,185h16.43V144.32H256ZM276.09,316.4h18.25V256.17H276.09Zm-43.81-67.53h16.43V188.64H232.28Zm23.73,0h16.43V188.64H256ZM276.09,185h18.25V144.32H276.09ZM298,248.87h18.25V188.64H298ZM385.6,316.4h18.25V256.17H385.6Zm0-67.53h18.25V188.64H385.6Zm21.91,0h16.42V188.64H407.51Zm0,67.53h16.42V256.17H407.51Zm-265-67.53H161.1V188.64H142.54ZM431.23,144.32V185h18.41V144.32ZM142.54,316.4H161.1V256.17H142.54ZM343.62,185h16.43V144.32H343.62Zm0,63.88h16.43V188.64H343.62Zm0,67.53h16.43V256.17H343.62ZM363.7,185H382V144.32H363.7Zm0,63.88H382V188.64H363.7Zm0,67.53H382V256.17H363.7ZM385.6,185h18.25V144.32H385.6ZM168.4,316.4h16.43V256.17H168.4ZM407.51,449.49h16.42V320.05H407.51Zm-21.91,0h18.25V320.05H385.6Zm-42,0h16.43V320.05H343.62Zm20.08,0H382V320.05H363.7Zm-65.71,0h18.25V320.05H298Zm-21.9,0h18.25V320.05H276.09Zm43.8,0h16.43V320.05H319.89Zm-177.35,0H161.1V320.05H142.54Zm0-264.5H161.1V144.32H142.54Zm288.69,264.5h18.41V320.05H431.23Zm0-200.62h18.41V188.64H431.23Zm0,67.53h18.41V256.17H431.23ZM407.51,185h16.42V144.32H407.51ZM210.38,248.87h18.25V188.64H210.38Zm-21.9,0h18.25V188.64H188.48Zm0-63.88h18.25V144.32H188.48Zm21.9,0h18.25V144.32H210.38ZM256,449.49h16.43V320.05H256ZM232.28,185h16.43V144.32H232.28ZM210.38,316.4h18.25V256.17H210.38Zm-21.9,0h18.25V256.17H188.48Zm21.9,133.09h18.25V320.05H210.38Zm21.9,0h16.43V320.05H232.28Zm-43.8,0h18.25V320.05H188.48ZM168.4,248.87h16.43V188.64H168.4Zm0-63.88h16.43V144.32H168.4Zm0,264.5h16.43V320.05H168.4Z" transform="translate(-27.22 -117.73)"/></g><path class="cls-6" d="M40.15,384.05V375H43v12.22a8.62,8.62,0,0,0,1.12,5,6.16,6.16,0,0,0,5,2.25,6.19,6.19,0,0,0,5.07-2c1-1.2,1.38-3,1.38-5.46V375h2.8v12.11c0,2.94-.55,5-1.88,6.65-1.43,1.85-4.09,3.09-7.4,3.09s-6-1.16-7.48-3.38c-1.06-1.5-1.48-3.18-1.48-6.13Z" transform="translate(-27.22 -117.73)"/><path class="cls-6" d="M90.76,396.74h-.33c-6.09-6.33-9.58-10-11.72-12.28-1.37-1.4-2.26-2.29-3.76-4h0c0,1,0,2.1,0,6.55v9.46H72.28V374.66h.32c6.31,6.6,9.88,10.38,12,12.6,1.23,1.3,2.21,2.3,3.45,3.72h.06c0-1.14,0-2,0-7.09V375h2.66v21.79Z" transform="translate(-27.22 -117.73)"/><path class="cls-6" d="M107.79,386.82v9.65h-2.86V375h2.86v11.87Z" transform="translate(-27.22 -117.73)"/><path class="cls-6" d="M129.86,396.77h-.33l-5.94-12.72c-3.56-7.61-4.12-8.86-4.2-9.05V375h3.17V375c.07.18.61,1.43,3.73,8.29,1.72,3.77,2.4,5.31,3.48,8.07h0c1.1-2.72,1.73-4.2,3.48-8.09,3.09-6.82,3.67-8.06,3.76-8.27V375h3V375c-.09.19-.64,1.44-4.22,9.05Z" transform="translate(-27.22 -117.73)"/><path class="cls-6" d="M151.65,384.05V375H162.5v2.25h-8v7.17h7.38v2.23h-7.38V394a.55.55,0,0,0,0,.18h8.29v2.28H151.65V384.05Z" transform="translate(-27.22 -117.73)"/><path class="cls-6" d="M175.86,384.05v-9l1.38-.08c.63,0,1.58-.05,2.08-.05a14,14,0,0,1,4.37.57,5.5,5.5,0,0,1,4,5.36,5.84,5.84,0,0,1-3.17,5.24,8,8,0,0,1-2,.86v0c.22.23.57.65,6.2,7.25.71.83,1.73,2,1.9,2.21v.05h-3.45c-1.8-2.21-4-4.88-7.52-9.12h-1v9.12h-2.76V384.05Zm9-3.09c0-2.5-2.05-3.84-5-3.84a12.34,12.34,0,0,0-1.25.06v8.12a7.84,7.84,0,0,0,3.52-.49,4,4,0,0,0,2.69-3.82Z" transform="translate(-27.22 -117.73)"/><path class="cls-6" d="M211.46,391.12c0,2.78-2.5,5.64-7.35,5.64a13.58,13.58,0,0,1-3.58-.49c.05-1.14.06-1.43.1-2.39h.07a7.39,7.39,0,0,0,1.05.32,11.09,11.09,0,0,0,2.39.25c2.22,0,4.3-1.25,4.3-3.41,0-1.28-.59-2.29-2.05-3.42-1.06-.83-1.92-1.43-2.85-2.25-1.75-1.58-2.59-2.89-2.59-4.92,0-2.92,2.48-5.62,7.06-5.62a11,11,0,0,1,2.7.29c0,.8-.07,1.26-.11,2.33h-.06a6.11,6.11,0,0,0-1-.22,8,8,0,0,0-1.3-.1c-2.45,0-4.29,1.26-4.29,3.24a3.63,3.63,0,0,0,1.33,2.8c.9.86,1.91,1.5,3.17,2.54,1.83,1.54,3,3,3,5.38Z" transform="translate(-27.22 -117.73)"/><path class="cls-6" d="M227.41,386.82v9.65h-2.86V375h2.86v11.87Z" transform="translate(-27.22 -117.73)"/><path class="cls-6" d="M246.52,377.18h-7.11V375h17.08v2.23h-7.12v19.29h-2.85V377.18Z" transform="translate(-27.22 -117.73)"/><path class="cls-6" d="M277.63,387.93v8.54h-2.88V388l-1.94-3.23c-5.11-8.51-5.66-9.58-5.75-9.8V375h3.24V375c.08.21.74,1.46,3.16,5.64.94,1.64,2,3.47,2.75,4.8h.09c.69-1.35,1.69-3.11,2.7-4.78,2.34-4.2,3-5.49,3.1-5.66V375h3.07V375c-.09.21-.63,1.23-5.74,9.89Z" transform="translate(-27.22 -117.73)"/><path class="cls-6" d="M328.14,389.49c0,3.94-3.28,7.19-7.9,7.19-4.37,0-7.76-3.18-7.76-7.05,0-4.05,3.43-7.17,8-7.17,4.4,0,7.63,3.07,7.63,7Zm-1.94.07a5.9,5.9,0,0,0-11.78,0,5.72,5.72,0,0,0,5.92,5.59,5.61,5.61,0,0,0,5.86-5.59Z" transform="translate(-27.22 -117.73)"/><path class="cls-6" d="M343.1,384.08h-5.05v4.84h4.75v1.43h-4.75v6.12h-1.82V382.63h7v1.45Z" transform="translate(-27.22 -117.73)"/><path class="cls-6" d="M389.77,397h-.38c-5.8-12.92-6.72-15.19-7.24-16.68h0c-.53,1.5-1.49,3.78-7.38,16.68h-.37l-4-13.43c-2.09-7.1-2.37-8.31-2.45-8.56V375h3V375c0,.22.42,1.43,2.3,7.95.91,3.27,1.36,4.87,2,7.52h.05c.73-2,1.46-3.68,3-7.44,1.06-2.28,2.46-5.11,3.72-7.89h.35c1.25,2.74,2.54,5.58,3.71,8,1.51,3.63,2.29,5.45,3,7.24h.05c.61-2.55,1.26-5,1.9-7.31,1.84-6.62,2.22-7.82,2.26-8V375H396V375c0,.23-.44,1.42-2.46,8.54Z" transform="translate(-27.22 -117.73)"/><path class="cls-6" d="M410.85,386.82v9.65H408V375h2.86v11.87Z" transform="translate(-27.22 -117.73)"/><path class="cls-6" d="M443.5,396.74h-.31c-6.09-6.33-9.58-10-11.72-12.28-1.38-1.4-2.27-2.29-3.76-4h0c0,1,0,2.1,0,6.55v9.46H425V374.66h.32c6.3,6.6,9.87,10.38,12,12.6,1.23,1.3,2.21,2.3,3.45,3.72h.06c0-1.14,0-2,0-7.09V375h2.65v21.79Z" transform="translate(-27.22 -117.73)"/><path class="cls-6" d="M475.46,385.31a10.37,10.37,0,0,1-4.36,8.82,14,14,0,0,1-8.54,2.42c-1,0-2.2,0-3-.05l-1.92-.1V375c.54,0,1.27-.09,2.2-.13s1.87,0,2.81,0a16,16,0,0,1,7.88,1.81,9.88,9.88,0,0,1,4.89,8.64Zm-3,.08a7.87,7.87,0,0,0-3.6-6.65,11.32,11.32,0,0,0-6-1.55c-.76,0-1.69,0-2.31.09v16.81c0,.05,0,.05.06.05.57.06,1.54.09,2.26.09a10.53,10.53,0,0,0,6.41-2,8.3,8.3,0,0,0,3.22-6.86Z" transform="translate(-27.22 -117.73)"/><path class="cls-6" d="M497.82,391.12c0,2.78-2.5,5.64-7.35,5.64a13.72,13.72,0,0,1-3.59-.49c.06-1.14.07-1.43.11-2.39h.07a7.39,7.39,0,0,0,1.05.32,11.09,11.09,0,0,0,2.39.25c2.22,0,4.3-1.25,4.3-3.41,0-1.28-.59-2.29-2.05-3.42-1.06-.83-1.93-1.43-2.85-2.25-1.75-1.58-2.59-2.89-2.59-4.92,0-2.92,2.48-5.62,7.06-5.62a11,11,0,0,1,2.7.29c0,.8-.07,1.26-.11,2.33h-.06a5.82,5.82,0,0,0-1-.22,7.59,7.59,0,0,0-1.29-.1c-2.46,0-4.3,1.26-4.3,3.24a3.64,3.64,0,0,0,1.34,2.8c.9.86,1.92,1.5,3.17,2.54,1.82,1.54,3,3,3,5.38Z" transform="translate(-27.22 -117.73)"/><path class="cls-6" d="M534,385.61c0,6.13-5.11,11.18-12.3,11.18-6.79,0-12.08-5-12.08-11,0-6.3,5.34-11.16,12.51-11.16,6.85,0,11.87,4.78,11.87,10.92Zm-3,.12c0-4.89-3.93-8.68-9.19-8.68a8.8,8.8,0,0,0-9.14,8.71,8.89,8.89,0,0,0,9.2,8.69c5.32,0,9.13-3.86,9.13-8.69Z" transform="translate(-27.22 -117.73)"/><path class="cls-6" d="M546.43,384.05v-9l1.39-.08c.63,0,1.58-.05,2.07-.05a14.09,14.09,0,0,1,4.38.57,5.52,5.52,0,0,1,4,5.36,5.82,5.82,0,0,1-3.17,5.24,7.63,7.63,0,0,1-2,.86v0c.23.23.58.65,6.21,7.25.7.83,1.73,2,1.9,2.21v.05h-3.45c-1.81-2.21-4-4.88-7.52-9.12h-1v9.12h-2.76V384.05Zm9-3.09c0-2.5-2.06-3.84-5-3.84a12.18,12.18,0,0,0-1.25.06v8.12a7,7,0,0,0,.89,0,6.93,6.93,0,0,0,2.63-.52A4,4,0,0,0,555.4,381Z" transform="translate(-27.22 -117.73)"/><path class="cls-6" d="M58.8,439.46c0,5-4.46,10.07-13.13,10.07a24.65,24.65,0,0,1-6.38-.87c.09-2.06.1-2.55.19-4.26h.1a18.82,18.82,0,0,0,1.89.55,19.57,19.57,0,0,0,4.26.47c4,0,7.67-2.25,7.67-6.12,0-2.28-1-4.07-3.66-6.09-1.89-1.47-3.43-2.56-5.08-4C41.53,426.38,40,424,40,420.4c0-5.2,4.42-10,12.6-10a19.89,19.89,0,0,1,4.82.51c-.07,1.43-.13,2.26-.2,4.18h-.1a12.14,12.14,0,0,0-1.82-.41,16,16,0,0,0-2.32-.18c-4.38,0-7.67,2.24-7.67,5.77a6.48,6.48,0,0,0,2.38,5c1.6,1.54,3.43,2.68,5.64,4.54,3.29,2.75,5.43,5.31,5.43,9.61Z" transform="translate(-27.22 -117.73)"/><path class="cls-6" d="M74.53,414.58H61.86v-4H92.34v4H79.62V449H74.53V414.58Z" transform="translate(-27.22 -117.73)"/><path class="cls-6" d="M96.72,426.84V410.58h5.16v21.83c0,4,.54,6.82,2,8.92,1.8,2.59,5.42,4,8.9,4,3.78,0,7-1.05,9-3.63,1.72-2.14,2.46-5.3,2.46-9.73V410.58h5V432.2c0,5.25-1,9-3.34,11.88-2.55,3.3-7.3,5.52-13.19,5.52s-10.7-2.07-13.35-6c-1.9-2.69-2.65-5.69-2.65-11Z" transform="translate(-27.22 -117.73)"/><path class="cls-6" d="M169.41,429.08a18.55,18.55,0,0,1-7.77,15.74c-4,3-9.24,4.33-15.25,4.33-1.72,0-3.91,0-5.28-.1-1.18,0-2.44-.1-3.42-.17V410.71c1-.07,2.26-.18,3.92-.24s3.34-.08,5-.08c5.46,0,10.3,1.07,14,3.22A17.63,17.63,0,0,1,169.41,429Zm-5.32.14a14.07,14.07,0,0,0-6.43-11.88c-2.58-1.72-6.59-2.75-10.78-2.75-1.34,0-3,.07-4.1.15v30c0,.1.05.1.1.1,1,.09,2.75.15,4,.15,4.38,0,8.62-1.25,11.42-3.48a14.85,14.85,0,0,0,5.75-12.25Z" transform="translate(-27.22 -117.73)"/><path class="cls-6" d="M175.44,426.84V410.58h19.35v4H180.52V427.4H193.7v4H180.52v13.22a.7.7,0,0,0,0,.33h14.78V449H175.44V426.84Z" transform="translate(-27.22 -117.73)"/><path class="cls-6" d="M235.18,449.5h-.57c-10.87-11.32-17.09-17.89-20.91-21.91-2.46-2.54-4-4.11-6.71-7.17h-.07c0,1.88,0,3.76,0,11.7V449h-4.73v-39h.57c11.25,11.81,17.62,18.53,21.4,22.52,2.19,2.31,4,4.11,6.16,6.64h.11c0-2,0-3.65,0-12.66v-16h4.73V449.5Z" transform="translate(-27.22 -117.73)"/><path class="cls-6" d="M252.86,414.58H240.19v-4h30.48v4H258V449h-5.09V414.58Z" transform="translate(-27.22 -117.73)"/><path class="cls-6" d="M292.67,439.46c0,5-4.45,10.07-13.12,10.07a24.67,24.67,0,0,1-6.39-.87c.09-2.06.11-2.55.2-4.26h.1a18.56,18.56,0,0,0,1.88.55,19.75,19.75,0,0,0,4.27.47c3.95,0,7.67-2.25,7.67-6.12,0-2.28-1-4.07-3.66-6.09-1.89-1.47-3.43-2.56-5.09-4-3.13-2.82-4.62-5.16-4.62-8.8,0-5.2,4.43-10,12.6-10a20,20,0,0,1,4.83.51c-.07,1.43-.13,2.26-.2,4.18H291a11.74,11.74,0,0,0-1.81-.41,16.25,16.25,0,0,0-2.32-.18c-4.38,0-7.67,2.24-7.67,5.77a6.43,6.43,0,0,0,2.39,5c1.59,1.54,3.41,2.68,5.63,4.54,3.27,2.75,5.42,5.31,5.42,9.61Z" transform="translate(-27.22 -117.73)"/><path class="cls-6" d="M300.32,410.38c1.73,0,3.13,1.23,3.13,3.49a8.25,8.25,0,0,1-2,5,11.57,11.57,0,0,1-3.41,2.91l-.8-.79a9.83,9.83,0,0,0,1.47-1.68,5.61,5.61,0,0,0,1.13-2.91c0-.25-.15-.44-.55-.51a2.6,2.6,0,0,1-2.09-2.53,3,3,0,0,1,3.09-2.95Z" transform="translate(-27.22 -117.73)"/><path class="cls-6" d="M328.81,438.22c-3.69,8.12-4.71,10.37-4.84,10.68V449h-5.29v-.11c.13-.28,1.26-2.52,8.06-17.22l10.06-21.76h.64l9.8,21.83c6.56,14.59,7.57,16.8,7.68,17.15V449h-5.6v-.11c-.11-.31-1.1-2.56-4.69-10.68ZM343,434.36l0-.16c-4.65-10.88-5.39-12.72-6-14.56h-.08c-.67,1.84-1.5,3.72-6.32,14.56l0,.16Z" transform="translate(-27.22 -117.73)"/><path class="cls-6" d="M359.56,426.84V410.58h5.09v34.08c0,.23,0,.28.23.28H379.4V449H359.56V426.84Z" transform="translate(-27.22 -117.73)"/><path class="cls-6" d="M385.3,426.84V410.58h5.09v34.08c0,.23,0,.28.22.28h14.52V449H385.3V426.84Z" transform="translate(-27.22 -117.73)"/><path class="cls-6" d="M416.14,431.77V449H411V410.58h5.11v21.19Z" transform="translate(-27.22 -117.73)"/><path class="cls-6" d="M430.56,438.22c-3.7,8.12-4.72,10.37-4.85,10.68V449h-5.28v-.11c.12-.28,1.26-2.52,8.05-17.22l10.06-21.76h.64L449,431.75c6.57,14.59,7.57,16.8,7.7,17.15V449h-5.62v-.11c-.1-.31-1.09-2.56-4.68-10.68Zm14.18-3.86-.05-.16c-4.63-10.88-5.38-12.72-6-14.56h-.09c-.66,1.84-1.49,3.72-6.31,14.56l0,.16Z" transform="translate(-27.22 -117.73)"/><path class="cls-6" d="M494.44,449.5h-.57C483,438.18,476.79,431.61,473,427.59c-2.45-2.54-4-4.11-6.7-7.17h-.06c0,1.88,0,3.76,0,11.7V449h-4.75v-39h.58c11.25,11.81,17.63,18.53,21.41,22.52,2.19,2.31,3.95,4.11,6.14,6.64h.12c0-2,0-3.65,0-12.66v-16h4.72V449.5Z" transform="translate(-27.22 -117.73)"/><path class="cls-6" d="M531.56,415.09c-.7-.18-1.51-.35-2.38-.49a32.15,32.15,0,0,0-5.06-.39c-11.08,0-18.11,5.92-18.11,15.52,0,9.31,7.44,15.62,17.48,15.62a32.46,32.46,0,0,0,5.47-.42c.89-.18,1.62-.39,2.44-.63h.07c0,1.15.11,3.15.16,4.19a30,30,0,0,1-3.67.74,40.25,40.25,0,0,1-5.08.34c-12,0-22.42-7.24-22.42-19.91,0-12.16,10-19.64,23.44-19.64a41.46,41.46,0,0,1,4.3.21c1.25.14,2.79.4,3.7.59-.08,1.34-.09,3-.18,4.27Z" transform="translate(-27.22 -117.73)"/><path class="cls-6" d="M539.06,426.84V410.58h19.35v4H544.15V427.4h13.17v4H544.15v13.22a1.12,1.12,0,0,0,0,.33H559V449H539.06V426.84Z" transform="translate(-27.22 -117.73)"/><path class="cls-2" d="M366,180.33v-8.08l-4.42,0h-.82c-2.62,0-5.7.06-10.93.06-4.93,0-8.46,0-11.44-.06h-.86l-4.45,0,0,4.46,0,1.23,0,2.88,1.19.51c-.19,4.58-4.05,19.84-11.15,47.87l-1.63,6.41c-4.53,17.57-7.93,31.35-10.91,44.28-2.93-8.05-6.51-17.61-11.7-31.43l-4.76-12.71,0-.11-.05-.1C287.53,220.33,280,202,272.7,184.28l-3.05-7.41-1.11-2.71H260.2l-1.12,2.72c-4.84,11.83-9.86,23.56-14.72,34.91-3.58,8.33-7,16.21-9.9,23.33l0,.06,0,.07c-2.24,5.92-4.24,11.16-6,15.86-4.9,12.89-8.28,21.78-11.11,29.63-3-12.49-6.11-24.59-11.6-45.72l-1.51-5.78c-7.41-28.37-11.41-43.69-11.53-48.13l1.21-.58v-8.27l-4.41,0H188c-3.24,0-6.86.06-11.52.06-3.75,0-7.27,0-9.88,0v-.08l-3.68,0-3.64,0v.08c-2.33,0-5.46,0-9.24,0-5.65,0-9.78,0-12.19-.07l-4.43,0v8.35l1.7.74c1.13,4.26,1.13,23.48,1.13,63.18v24.93c0,18.18-2.88,30.42-9.09,38.55-6.65,8.75-17,13.19-30.6,13.19-12.57,0-24.45-5.63-30.28-14.35-5.46-8.07-7.79-18.8-7.79-35.89V244.66c0-39.79,0-59,1.13-63.3l1.66-.75v-8.36l-4.43,0c-2.4,0-6.86.07-12.61.07-7.15,0-11.73-.06-12.58-.07l-4.44,0v8.3l1.56.74c1.06,4.18,1.06,22.36,1.06,63.22v27.41c0,23.3,3.31,37.21,11.8,49.6,11,17.25,30.47,26.74,54.72,26.74,22.22,0,42.13-9.12,53.28-24.39,10-12.94,14.5-29.53,14.5-53.77V244.66c0-25.84,0-43,.28-53.13,1.61,5.69,3.79,13.84,6.74,24.85,2,7.26,4.26,15.92,7.06,26.25l27.94,103.6.87,3.25h9.08l1.11-2.72c30.15-73.67,41.23-101.5,46.42-115.49,5.08,14,15.95,41.86,45.46,115.46l1.1,2.75h9.1l.85-3.28,27-103.66c10.19-39.07,15.28-58.16,17.17-61.13Zm204.86,156.3c-2.22-2.92-10.68-24-28.82-69l-38.23-95.36-1.1-2.75h-8.62L493,172.25l-39.32,95.09c-6,14.56-11,26.59-15.14,36.34.1-1.16.15-2.32.15-3.47V300c0-20-9.45-32.43-23.64-45-3.38-2.95-6.54-5.56-9.34-7.86a142.89,142.89,0,0,1-12.26-10.87c-5.78-5.85-8.24-11.38-8.24-18.49,0-12.15,10-20.31,24.82-20.31a32.71,32.71,0,0,1,8.72,1.16c2.72.94,4.25,2.07,4.79,2.81l1.31,1.83h7.6l.11-4.26c.25-8.88.49-13.91.82-20.56l.17-3.38-3.23-1c-5.48-1.72-13.48-2.75-21.42-2.75-34.73,0-52.9,23.82-52.9,47.34,0,18.69,8.27,30.2,20.7,41.75,4.27,3.91,8.2,7.14,12.35,10.56,2.48,2,5,4.15,7.72,6.45,8.78,7.47,12.36,14,12.36,22.58,0,14.25-12.74,21.71-25.32,21.71a48.63,48.63,0,0,1-15.42-2.28,12.1,12.1,0,0,1-5.45-3.89l-1.32-1.81h-7.53l-.16,4.22,0,1.19c-.29,7.65-.43,11.49-.84,19.93l-.16,3.19,3,1.13c7.09,2.67,18.5,4.54,27.74,4.54,19.4,0,33.83-6.92,43-17a36.46,36.46,0,0,1-3,5.5l-2.12.94v8.42l4.42,0c2.88,0,6.94-.06,12.77-.06,3.5,0,7.08,0,10.46,0h1.69l4.41,0V337.5l-.46-.22c1.1-4.59,6.2-17.2,14.67-38h54.55c8.23,20.81,13.2,33.41,14.23,38l-.48.23v8.31l4.41,0h2.67c3.69,0,7.35,0,11,0,5.78,0,9.73,0,12.46.06l4.43,0V337.7ZM479.3,274.22l1.21-3c9.14-23.05,14-35.26,16.87-42.8,2.77,7.67,7.61,20.53,17.24,45.83Z" transform="translate(-27.22 -117.73)"/><path class="cls-6" d="M137.8,176.67v1.07c2.84,1.24,2.84,9.91,2.84,66.92v24.79c0,18.83-3.07,32.13-10,41.2-8,10.47-20,14.92-34.09,14.92-13.36,0-26.9-5.78-33.91-16.27-6-8.93-8.54-20.68-8.54-38.35V244.66c0-57,0-65.63,2.79-66.88v-1.11c-2.41,0-6.89.07-12.66.07-6,0-10.56,0-12.64-.07v1.11c2.62,1.25,2.62,9.83,2.62,66.88v27.25c0,22.34,3.16,35.66,11.06,47.16,10.33,16.23,28.52,24.8,51.08,24.8,22.15,0,40-9.25,49.78-22.65,9.44-12.16,13.62-28,13.62-51.13V244.66c0-57,0-65.68,2.46-66.92v-1.07c-2.21,0-6.47.07-12.18.07S140.23,176.7,137.8,176.67Z" transform="translate(-27.22 -117.73)"/><path class="cls-6" d="M361.64,177.91v-1.24c-2.83,0-6,.07-11.79.07-5.43,0-9.16,0-12.33-.07v1.24c3,1.27.73,9.67-11.71,58.79-5.85,22.73-10.05,39.95-14.08,58.43h-.35c-4.65-13.68-9.64-26.75-21.28-57.84C282.59,220,274,199,265.6,178.54h-2.46c-8.47,20.69-17.74,41.63-24.64,58.26-12.16,32.08-16.91,44.13-21.84,59.09h-.31c-4.42-19-7.44-31-14.91-59.77-12.68-48.53-15-56.88-12-58.34v-1.11c-3.62,0-7.61.07-13,.07s-10.45,0-12.82-.07v1.11c2.53,1.59,4.27,10,18.79,63.71l27.94,103.6h2.78c40.27-98.4,46.67-115.32,50.42-127h.2c3.64,11.59,9.81,28.32,49.37,127h2.75l27-103.66C356.93,187.61,359.36,179.34,361.64,177.91Z" transform="translate(-27.22 -117.73)"/><path class="cls-6" d="M434.3,300c0-18.82-8.95-30-22.15-41.67-8.81-7.73-15.78-12.68-21.83-19s-9.5-12.7-9.5-21.56c0-15.1,12.53-24.7,29.2-24.7a36.53,36.53,0,0,1,10.14,1.41c2.52.87,5.42,2.3,6.93,4.4h1.08c.24-8.67.47-13.63.82-20.66-4.76-1.49-12.15-2.54-20.1-2.54-31.1,0-48.52,20.4-48.52,43,0,16,6.36,26.51,19.28,38.52,6.76,6.18,12.83,10.81,20,16.9,9.93,8.46,13.9,16.15,13.9,25.92,0,16.41-14,26.09-29.7,26.09a52.25,52.25,0,0,1-17-2.58,16.53,16.53,0,0,1-7.4-5.4H358.3c-.31,8.41-.45,12.28-.89,21.18,6.27,2.36,17.18,4.26,26.19,4.26,33.35,0,50.7-21.54,50.7-43.36Z" transform="translate(-27.22 -117.73)"/><path class="cls-6" d="M538,269.28l-38.23-95.36H497L457.71,269c-25.5,61.6-29.5,70.23-31.77,71.23v1.15c2.89,0,7-.06,12.81-.06,4.1,0,8.3,0,12.18.06v-1.15c-2.37-1.13,1.15-9.75,15.64-45.33h60.48c14.06,35.59,17.52,44.2,15.15,45.33v1.15c4.6,0,9.16-.06,13.69-.06,5.8,0,9.76,0,12.51.06v-1.15C566.16,339,562.64,330.48,538,269.28Zm-65,9.32.17-.73c18.89-47.65,21.9-55.12,24.18-62.4h.35c2.15,7.29,4.83,14.64,23,62.4l.16.73Z" transform="translate(-27.22 -117.73)"/></svg>