<svg width="142" height="142" viewBox="0 0 142 142" fill="none" xmlns="http://www.w3.org/2000/svg">
<path d="M39.2871 32.894C46.2673 27.0369 56.7278 28.0113 62.5849 34.9916C68.5016 42.0428 79.0688 43.0268 86.12 37.1101C93.1703 31.1942 103.682 32.1124 109.599 39.1615C115.518 46.2126 114.474 56.8321 107.421 62.7496C100.39 68.6496 99.3979 79.2577 105.366 86.2308C111.335 93.2039 110.437 103.733 103.406 109.633C96.3898 115.52 85.8718 114.598 79.9844 107.582C74.0685 100.531 63.5299 99.579 56.4795 105.495C49.4298 111.41 38.9189 110.491 33.0026 103.442C27.0846 96.3906 28.1291 85.7702 35.181 79.853C42.2322 73.9363 43.2238 63.2534 37.3071 56.2022C31.4499 49.2219 32.3068 38.7512 39.2871 32.894Z" fill="#FFD8C1"/>
</svg>
