<svg width="123" height="123" viewBox="0 0 123 123" fill="none" xmlns="http://www.w3.org/2000/svg">
<path d="M48.4541 12.8987C57.2557 10.5403 66.3243 15.8442 68.6827 24.6458C71.065 33.5369 80.2263 38.8946 89.1174 36.5122C98.0073 34.1302 107.146 39.4046 109.53 48.294C111.914 57.1859 106.48 66.3692 97.5873 68.7519C88.7214 71.1275 83.3389 80.3224 85.8013 89.1646C88.2637 98.0068 83.0005 107.17 74.1346 109.545C65.2876 111.916 56.1447 106.635 53.7741 97.7881C51.3921 88.8981 42.2433 83.5813 33.3533 85.9634C24.4641 88.3452 15.3267 83.0696 12.9437 74.1807C10.5601 65.2891 15.9951 56.1053 24.887 53.7227C33.7781 51.3403 39.1916 42.0774 36.8092 33.1863C34.4508 24.3847 39.6525 15.2571 48.4541 12.8987Z" fill="#B7EFF7"/>
</svg>
