<svg width="99" height="99" viewBox="0 0 99 99" fill="none" xmlns="http://www.w3.org/2000/svg">
<path d="M36.4541 0.898597C45.2557 -1.45979 54.3243 3.84409 56.6827 12.6457C59.065 21.5368 68.2263 26.8945 77.1174 24.5121C86.0073 22.1301 95.1458 27.4045 97.5295 36.2939C99.914 45.1858 94.4796 54.3691 85.5873 56.7518C76.7214 59.1274 71.3389 68.3223 73.8013 77.1645C76.2637 86.0066 71.0005 95.1695 62.1346 97.5452C53.2876 99.9157 44.1447 94.6349 41.7741 85.788C39.3921 76.898 30.2433 71.5812 21.3533 73.9633C12.4641 76.3451 3.32669 71.0695 0.943743 62.1806C-1.43992 53.289 3.99511 44.1052 12.887 41.7226C21.7781 39.3402 27.1916 30.0773 24.8092 21.1862C22.4508 12.3846 27.6525 3.25698 36.4541 0.898597Z" fill="#5DA4BE"/>
</svg>