<svg width="685" height="200" viewBox="0 0 685 200" fill="none" xmlns="http://www.w3.org/2000/svg">
<g opacity="0.6">
<path fill-rule="evenodd" clip-rule="evenodd" d="M268.726 0L204.665 0L108.955 0C103.979 0 99.9455 5.06585 99.9455 11.3149C99.9455 17.0342 103.344 21.8542 107.864 22.5466L115.032 23.6445C119.931 23.0604 124.24 26.8862 124.24 31.8196V36.7046V39.3854C124.24 45.1712 119.55 49.8614 113.764 49.8614H30.4675C24.8768 49.8614 20.3446 55.5534 20.3446 62.5749C20.3446 69.5963 24.8768 75.2883 30.4675 75.2883H186.138C191.661 75.2883 196.138 79.7652 196.138 85.2878V87.8467V90.4056C196.138 95.9281 191.661 100.405 186.138 100.405H109.735C104.328 100.405 99.9455 105.91 99.9455 112.7V115.205C99.9455 120.612 95.5626 124.995 90.156 124.995H9.98094C4.46862 124.995 0 130.607 0 137.53C0 144.453 4.46862 150.065 9.98094 150.065H171.988C177.253 150.065 181.521 154.333 181.521 159.598V162.038V164.478C181.521 169.743 177.253 174.011 171.988 174.011H138.337C132.622 174.011 127.99 179.829 127.99 187.006C127.99 194.182 132.622 200 138.337 200H356.224H444.839C450.389 200 454.889 194.349 454.889 187.378C454.889 180.407 450.389 174.755 444.839 174.755H403.92C398.798 174.755 394.645 170.603 394.645 165.48V163.107V160.753C394.645 155.657 398.749 151.511 403.844 151.459L675.65 148.672C680.826 148.619 685 143.335 685 136.834C685 130.295 680.78 124.995 675.573 124.995H505.639C500.301 124.995 495.973 120.667 495.973 115.329V112.855V110.381C495.973 105.043 500.301 100.715 505.639 100.715H557.481C563.318 100.715 568.049 94.7732 568.049 87.4436C568.049 80.1139 563.318 74.172 557.481 74.172H365.902C360.557 74.172 356.224 69.8388 356.224 64.4935V62.0167V59.5399C356.224 54.1946 360.557 49.8614 365.902 49.8614H497.31C502.765 49.8614 507.186 44.3083 507.186 37.4581C507.186 30.6079 502.765 25.0548 497.31 25.0548H288.676C283.167 25.0548 278.701 20.5889 278.701 15.08V12.5274C278.701 5.6087 274.235 0 268.726 0ZM250.547 150.065C243.624 150.065 238.012 144.453 238.012 137.53C238.012 130.607 243.624 124.995 250.547 124.995H304.88C311.803 124.995 317.415 130.607 317.415 137.53C317.415 144.453 311.803 150.065 304.88 150.065H250.547Z" fill="#FFD8C1"/>
<path fill-rule="evenodd" clip-rule="evenodd" d="M288.676 25.0548C283.167 25.0548 278.701 20.5889 278.701 15.08V12.5274C278.701 19.4461 283.167 25.0548 288.676 25.0548ZM356.224 59.5399C356.224 54.1946 360.557 49.8614 365.902 49.8614C360.557 49.8614 356.224 55.3035 356.224 62.0167V59.5399ZM356.224 62.0167C356.224 68.7299 360.557 74.172 365.902 74.172C360.557 74.172 356.224 69.8388 356.224 64.4935V62.0167ZM495.973 110.381C495.973 105.043 500.301 100.715 505.639 100.715C500.301 100.715 495.973 106.15 495.973 112.855V110.381ZM495.973 112.855C495.973 119.56 500.301 124.995 505.639 124.995C500.301 124.995 495.973 120.667 495.973 115.329V112.855ZM115.032 23.6445C120.289 24.4495 124.24 30.0542 124.24 36.7046C124.24 43.9709 119.55 49.8614 113.764 49.8614C119.55 49.8614 124.24 45.1712 124.24 39.3854V36.7046V31.8196C124.24 26.8862 119.931 23.0604 115.032 23.6445ZM196.138 87.8467C196.138 80.9109 191.661 75.2883 186.138 75.2883C191.661 75.2883 196.138 79.7652 196.138 85.2878V87.8467ZM196.138 87.8467V90.4056C196.138 95.9281 191.661 100.405 186.138 100.405C191.661 100.405 196.138 94.7825 196.138 87.8467ZM90.156 124.995C95.5626 124.995 99.9455 119.49 99.9455 112.7V115.205C99.9455 120.612 95.5626 124.995 90.156 124.995ZM181.521 162.038C181.521 155.425 177.253 150.065 171.988 150.065C177.253 150.065 181.521 154.333 181.521 159.598V162.038ZM181.521 162.038V164.478C181.521 169.743 177.253 174.011 171.988 174.011C177.253 174.011 181.521 168.651 181.521 162.038ZM394.645 163.107C394.645 169.54 398.798 174.755 403.92 174.755C398.798 174.755 394.645 170.603 394.645 165.48V163.107ZM403.844 151.459C398.752 151.511 394.645 156.711 394.645 163.107V160.753C394.645 155.657 398.749 151.511 403.844 151.459Z" fill="#FFD8C1"/>
</g>
</svg>
