<svg width="861" height="200" viewBox="0 0 861 200" fill="none" xmlns="http://www.w3.org/2000/svg">
<g opacity="0.5">
<path fill-rule="evenodd" clip-rule="evenodd" d="M337.495 0H257.04H136.837C130.588 0 125.522 5.06585 125.522 11.3149C125.522 17.0342 129.79 21.8542 135.467 22.5466L144.47 23.6445C150.672 23.0557 156.034 27.933 156.034 34.1627V36.7046C156.034 43.9709 150.143 49.8614 142.877 49.8614H38.2643C31.2429 49.8614 25.5509 55.5534 25.5509 62.5749C25.5509 69.5963 31.2429 75.2883 38.2643 75.2883H233.772C240.708 75.2883 246.33 80.9109 246.33 87.8467C246.33 94.7825 240.708 100.405 233.772 100.405H137.817C131.027 100.405 125.522 105.91 125.522 112.7C125.522 119.49 120.018 124.995 113.227 124.995H12.5351C5.61217 124.995 0 130.607 0 137.53C0 144.453 5.61217 150.065 12.5351 150.065H216C222.613 150.065 227.973 155.425 227.973 162.038C227.973 168.651 222.613 174.011 216 174.011H173.738C166.561 174.011 160.743 179.829 160.743 187.006C160.743 194.182 166.561 200 173.738 200H447.384H558.676C565.647 200 571.298 194.349 571.298 187.378C571.298 180.407 565.647 174.755 558.676 174.755H507.286C500.853 174.755 495.637 169.54 495.637 163.107C495.637 156.711 500.795 151.511 507.191 151.459L848.553 148.672C855.054 148.619 860.296 143.335 860.296 136.834C860.296 130.295 854.995 124.995 848.457 124.995H635.036C628.331 124.995 622.896 119.56 622.896 112.855C622.896 106.15 628.331 100.715 635.036 100.715H700.144C707.474 100.715 713.416 94.7732 713.416 87.4436C713.416 80.1139 707.474 74.172 700.144 74.172H459.539C452.826 74.172 447.384 68.7299 447.384 62.0167C447.384 55.3035 452.826 49.8614 459.539 49.8614H624.575C631.425 49.8614 636.979 44.3083 636.979 37.4581C636.979 30.6079 631.425 25.0548 624.575 25.0548H362.55C355.631 25.0548 350.022 19.4461 350.022 12.5274C350.022 5.6087 344.414 0 337.495 0ZM311.456 150.065C304.533 150.065 298.921 144.453 298.921 137.53C298.921 130.607 304.533 124.995 311.456 124.995H386.108C393.031 124.995 398.643 130.607 398.643 137.53C398.643 144.453 393.031 150.065 386.108 150.065H311.456Z" fill="#84E0E6"/>
<path fill-rule="evenodd" clip-rule="evenodd" d="M362.55 25.0548C355.631 25.0548 350.022 19.4461 350.022 12.5274C350.022 19.4461 355.631 25.0548 362.55 25.0548ZM447.384 62.0167C447.384 55.3035 452.826 49.8614 459.539 49.8614C452.826 49.8614 447.384 55.3035 447.384 62.0167ZM447.384 62.0167C447.384 68.7299 452.826 74.172 459.539 74.172C452.826 74.172 447.384 68.7299 447.384 62.0167ZM622.896 112.855C622.896 106.15 628.331 100.715 635.036 100.715C628.331 100.715 622.896 106.15 622.896 112.855ZM622.896 112.855C622.896 119.56 628.331 124.995 635.036 124.995C628.331 124.995 622.896 119.56 622.896 112.855ZM144.47 23.6445C151.071 24.4495 156.034 30.0542 156.034 36.7046C156.034 43.9709 150.143 49.8614 142.877 49.8614C150.143 49.8614 156.034 43.9709 156.034 36.7046V34.1627C156.034 27.933 150.672 23.0557 144.47 23.6445ZM246.33 87.8467C246.33 80.9109 240.708 75.2883 233.772 75.2883C240.708 75.2883 246.33 80.9109 246.33 87.8467ZM246.33 87.8467C246.33 94.7825 240.708 100.405 233.772 100.405C240.708 100.405 246.33 94.7825 246.33 87.8467ZM113.227 124.995C120.018 124.995 125.522 119.49 125.522 112.7C125.522 119.49 120.018 124.995 113.227 124.995ZM227.973 162.038C227.973 155.425 222.613 150.065 216 150.065C222.613 150.065 227.973 155.425 227.973 162.038ZM227.973 162.038C227.973 168.651 222.613 174.011 216 174.011C222.613 174.011 227.973 168.651 227.973 162.038ZM495.637 163.107C495.637 169.54 500.853 174.755 507.286 174.755C500.853 174.755 495.637 169.54 495.637 163.107ZM507.191 151.459C500.795 151.511 495.637 156.711 495.637 163.107C495.637 156.711 500.795 151.511 507.191 151.459Z" fill="#84E0E6"/>
</g>
</svg>
