<svg width="685" height="200" viewBox="0 0 685 200" fill="none" xmlns="http://www.w3.org/2000/svg">
<g opacity="0.4">
<path fill-rule="evenodd" clip-rule="evenodd" d="M416.274 200H480.335L576.045 200C581.021 200 585.054 194.934 585.054 188.685C585.054 182.966 581.656 178.146 577.136 177.453L569.968 176.356C565.069 176.94 560.76 173.114 560.76 168.18V163.295V160.615C560.76 154.829 565.45 150.139 571.236 150.139H654.533C660.123 150.139 664.655 144.447 664.655 137.425C664.655 130.404 660.123 124.712 654.533 124.712L498.862 124.712C493.339 124.712 488.862 120.235 488.862 114.712V112.153V109.594C488.862 104.072 493.339 99.5949 498.862 99.5949L575.265 99.5949C580.672 99.5949 585.054 94.0904 585.054 87.3001V84.7949C585.054 79.3883 589.437 75.0053 594.844 75.0053L675.019 75.0053C680.531 75.0053 685 69.3932 685 62.4702C685 55.5472 680.531 49.9351 675.019 49.9351L513.012 49.9351C507.747 49.9351 503.479 45.6668 503.479 40.4016V37.962V35.5223C503.479 30.2571 507.747 25.9889 513.012 25.9889H546.663C552.378 25.9889 557.01 20.1711 557.01 12.9944C557.01 5.81779 552.378 0 546.663 0L328.776 0H240.161C234.611 0 230.111 5.65121 230.111 12.6223C230.111 19.5935 234.611 25.2447 240.161 25.2447H281.08C286.202 25.2447 290.355 29.3972 290.355 34.5195V36.893V39.2471C290.355 44.343 286.251 48.4887 281.156 48.541L9.34979 51.3276C4.17371 51.3807 0 56.6655 0 63.1663C0 69.7048 4.22046 75.0053 9.4267 75.0053L179.361 75.0053C184.699 75.0053 189.027 79.333 189.027 84.6715V87.1451V89.6187C189.027 94.9572 184.699 99.2849 179.361 99.2849L127.519 99.2849C121.682 99.2849 116.951 105.227 116.951 112.556C116.951 119.886 121.682 125.828 127.519 125.828L319.098 125.828C324.443 125.828 328.776 130.161 328.776 135.507V137.983V140.46C328.776 145.805 324.443 150.139 319.098 150.139H187.69C182.235 150.139 177.814 155.692 177.814 162.542C177.814 169.392 182.235 174.945 187.69 174.945L396.324 174.945C401.833 174.945 406.299 179.411 406.299 184.92V187.473C406.299 194.391 410.765 200 416.274 200ZM434.453 49.9351C441.376 49.9351 446.988 55.5472 446.988 62.4702C446.988 69.3932 441.376 75.0053 434.453 75.0053L380.12 75.0053C373.197 75.0053 367.585 69.3932 367.585 62.4702C367.585 55.5472 373.197 49.9351 380.12 49.9351H434.453Z" fill="#2D9CDB"/>
<path fill-rule="evenodd" clip-rule="evenodd" d="M396.324 174.945C401.833 174.945 406.299 179.411 406.299 184.92V187.473C406.299 180.554 401.833 174.945 396.324 174.945ZM328.776 140.46C328.776 145.805 324.443 150.139 319.098 150.139C324.443 150.139 328.776 144.696 328.776 137.983V140.46ZM328.776 137.983C328.776 131.27 324.443 125.828 319.098 125.828C324.443 125.828 328.776 130.161 328.776 135.507V137.983ZM189.027 89.6187C189.027 94.9572 184.699 99.2849 179.361 99.2849C184.699 99.2849 189.027 93.8497 189.027 87.1451V89.6187ZM189.027 87.1451C189.027 80.4405 184.699 75.0053 179.361 75.0053C184.699 75.0053 189.027 79.333 189.027 84.6715V87.1451ZM569.968 176.356C564.711 175.55 560.76 169.946 560.76 163.295C560.76 156.029 565.45 150.139 571.236 150.139C565.45 150.139 560.76 154.829 560.76 160.615V163.295V168.18C560.76 173.114 565.069 176.94 569.968 176.356ZM488.862 112.153C488.862 119.089 493.339 124.712 498.862 124.712C493.339 124.712 488.862 120.235 488.862 114.712V112.153ZM488.862 112.153V109.594C488.862 104.072 493.339 99.5949 498.862 99.5949C493.339 99.5949 488.862 105.218 488.862 112.153ZM594.844 75.0053C589.437 75.0053 585.054 80.5099 585.054 87.3001V84.7949C585.054 79.3883 589.437 75.0053 594.844 75.0053ZM503.479 37.962C503.479 44.5745 507.747 49.9351 513.012 49.9351C507.747 49.9351 503.479 45.6668 503.479 40.4016V37.962ZM503.479 37.962V35.5223C503.479 30.2571 507.747 25.9889 513.012 25.9889C507.747 25.9889 503.479 31.3494 503.479 37.962ZM290.355 36.893C290.355 30.4598 286.202 25.2447 281.08 25.2447C286.202 25.2447 290.355 29.3972 290.355 34.5195V36.893ZM281.156 48.541C286.248 48.4888 290.355 43.2891 290.355 36.893V39.2471C290.355 44.343 286.251 48.4887 281.156 48.541Z" fill="#2D9CDB"/>
</g>
</svg>
