<svg width="479" height="140" viewBox="0 0 479 140" fill="none" xmlns="http://www.w3.org/2000/svg">
<path opacity="0.5" d="M407.52 140C415.252 140 421.52 133.732 421.52 126C421.52 118.268 415.252 112 407.52 112L378.04 112C370.308 112 364.04 105.732 364.04 98C364.04 90.268 370.308 84 378.04 84L465 84C472.732 84 479 77.732 479 70C479 62.268 472.732 56 465 56L301.4 56C293.668 56 287.4 49.732 287.4 42C287.4 34.268 293.668 28 301.4 28L330.88 28C338.612 28 344.88 21.732 344.88 14C344.88 6.26801 338.612 0 330.88 0H148.12C140.388 0 134.12 6.26801 134.12 14C134.12 21.732 140.388 28 148.12 28H177.6C185.332 28 191.6 34.268 191.6 42C191.6 49.732 185.332 56 177.6 56L14 56C6.26801 56 0 62.268 0 70C0 77.732 6.26801 84 14 84L139.28 84C147.012 84 153.28 90.268 153.28 98C153.28 105.732 159.548 112 167.28 112L235.08 112C242.812 112 249.08 118.268 249.08 126C249.08 133.732 255.348 140 263.08 140L407.52 140Z" fill="#FFEFA1"/>
</svg>
