<svg width="704" height="200" viewBox="0 0 704 200" fill="none" xmlns="http://www.w3.org/2000/svg">
<g opacity="0.5">
<path fill-rule="evenodd" clip-rule="evenodd" d="M276.18 0L210.341 0L111.977 0C106.863 0 102.718 5.06585 102.718 11.3149C102.718 17.0342 106.21 21.8542 110.856 22.5466L118.223 23.6445C123.263 23.0598 127.686 26.9995 127.686 32.0733V36.7046V39.0949C127.686 45.0411 122.866 49.8614 116.92 49.8614H31.3126C25.5668 49.8614 20.9089 55.5534 20.9089 62.5749C20.9089 69.5963 25.5668 75.2883 31.3126 75.2883H191.301C196.977 75.2883 201.578 79.8894 201.578 85.5651V87.8467V90.1282C201.578 95.804 196.977 100.405 191.301 100.405H112.779C107.222 100.405 102.718 105.91 102.718 112.7V114.934C102.718 120.49 98.2132 124.995 92.6566 124.995H10.2578C4.59257 124.995 0 130.607 0 137.53C0 144.453 4.59257 150.065 10.2578 150.065H176.758C182.169 150.065 186.556 154.452 186.556 159.863V162.038V164.213C186.556 169.624 182.169 174.011 176.758 174.011H142.174C136.301 174.011 131.54 179.829 131.54 187.006C131.54 194.182 136.301 200 142.174 200H366.104H457.177C462.882 200 467.506 194.349 467.506 187.378C467.506 180.407 462.882 174.755 457.177 174.755H415.124C409.859 174.755 405.592 170.488 405.592 165.223V163.107V161.008C405.592 155.771 409.809 151.511 415.046 151.459L694.391 148.672C699.711 148.619 704 143.335 704 136.834C704 130.295 699.662 124.995 694.312 124.995H519.664C514.178 124.995 509.73 120.547 509.73 115.06V112.855V110.649C509.73 105.163 514.178 100.715 519.664 100.715H572.944C578.942 100.715 583.805 94.7732 583.805 87.4436C583.805 80.1139 578.942 74.172 572.944 74.172H376.051C370.558 74.172 366.104 69.7186 366.104 64.225V62.0167V59.8084C366.104 54.3148 370.558 49.8614 376.051 49.8614H511.104C516.71 49.8614 521.254 44.3083 521.254 37.4581C521.254 30.6079 516.71 25.0548 511.104 25.0548H296.683C291.021 25.0548 286.431 20.465 286.431 14.8033V12.5274C286.431 5.6087 281.842 0 276.18 0ZM257.149 150.065C250.226 150.065 244.614 144.453 244.614 137.53C244.614 130.607 250.226 124.995 257.149 124.995H313.684C320.607 124.995 326.219 130.607 326.219 137.53C326.219 144.453 320.607 150.065 313.684 150.065H257.149Z" fill="#7B94EB"/>
<path fill-rule="evenodd" clip-rule="evenodd" d="M296.683 25.0548C291.021 25.0548 286.431 20.465 286.431 14.8033V12.5274C286.431 19.4461 291.021 25.0548 296.683 25.0548ZM366.104 59.8084C366.104 54.3148 370.558 49.8614 376.051 49.8614C370.558 49.8614 366.104 55.3035 366.104 62.0167V59.8084ZM366.104 62.0167C366.104 68.7299 370.558 74.172 376.051 74.172C370.558 74.172 366.104 69.7186 366.104 64.225V62.0167ZM509.73 110.649C509.73 105.163 514.178 100.715 519.664 100.715C514.178 100.715 509.73 106.15 509.73 112.855V110.649ZM509.73 112.855C509.73 119.56 514.178 124.995 519.664 124.995C514.178 124.995 509.73 120.547 509.73 115.06V112.855ZM118.223 23.6445C123.625 24.4495 127.686 30.0542 127.686 36.7046C127.686 43.9709 122.866 49.8614 116.92 49.8614C122.866 49.8614 127.686 45.0411 127.686 39.0949V36.7046V32.0733C127.686 26.9995 123.263 23.0598 118.223 23.6445ZM201.578 87.8467C201.578 80.9109 196.977 75.2883 191.301 75.2883C196.977 75.2883 201.578 79.8894 201.578 85.5651V87.8467ZM201.578 87.8467V90.1282C201.578 95.804 196.977 100.405 191.301 100.405C196.977 100.405 201.578 94.7825 201.578 87.8467ZM92.6566 124.995C98.2132 124.995 102.718 119.49 102.718 112.7V114.934C102.718 120.49 98.2132 124.995 92.6566 124.995ZM186.556 162.038C186.556 155.425 182.169 150.065 176.758 150.065C182.169 150.065 186.556 154.452 186.556 159.863V162.038ZM186.556 162.038V164.213C186.556 169.624 182.169 174.011 176.758 174.011C182.169 174.011 186.556 168.651 186.556 162.038ZM405.592 163.107C405.592 169.54 409.859 174.755 415.124 174.755C409.859 174.755 405.592 170.488 405.592 165.223V163.107ZM415.046 151.459C409.812 151.511 405.592 156.711 405.592 163.107V161.008C405.592 155.771 409.809 151.511 415.046 151.459Z" fill="#7B94EB"/>
</g>
</svg>
