<svg width="622" height="133" viewBox="0 0 622 133" fill="none" xmlns="http://www.w3.org/2000/svg">
<path opacity="0.9" d="M87.94 0C80.5946 0 74.64 5.95462 74.64 13.3V13.3C74.64 20.6454 80.5946 26.6 87.94 26.6H135.98C143.325 26.6 149.28 32.5546 149.28 39.9V39.9C149.28 47.2454 143.325 53.2 135.98 53.2H13.3C5.95464 53.2 0 59.1546 0 66.5V66.5C0 73.8454 5.95461 79.8 13.3 79.8H235.5C242.845 79.8 248.8 85.7546 248.8 93.1V93.1C248.8 100.445 242.845 106.4 235.5 106.4H187.46C180.115 106.4 174.16 112.355 174.16 119.7V119.7C174.16 127.045 180.115 133 187.46 133H434.54C441.885 133 447.84 127.045 447.84 119.7V119.7C447.84 112.355 441.885 106.4 434.54 106.4H386.5C379.155 106.4 373.2 100.445 373.2 93.1V93.1C373.2 85.7546 379.155 79.8 386.5 79.8H608.7C616.045 79.8 622 73.8454 622 66.5V66.5C622 59.1546 616.045 53.2 608.7 53.2H436.26C428.915 53.2 422.96 47.2454 422.96 39.9V39.9C422.96 32.5546 417.005 26.6 409.66 26.6H311.86C304.515 26.6 298.56 20.6454 298.56 13.3V13.3C298.56 5.95462 292.605 0 285.26 0L87.94 0Z" fill="#FFD8C1"/>
</svg>
