<svg width="623" height="141" viewBox="0 0 623 141" fill="none" xmlns="http://www.w3.org/2000/svg">
<path d="M88.86 0C81.0728 0 74.76 6.31278 74.76 14.1V14.1C74.76 21.8872 81.0728 28.2 88.86 28.2H135.42C143.207 28.2 149.52 34.5128 149.52 42.3V42.3C149.52 50.0872 143.207 56.4 135.42 56.4H14.1C6.31279 56.4 0 62.7128 0 70.5V70.5C0 78.2872 6.31279 84.6 14.1 84.6H235.1C242.887 84.6 249.2 90.9128 249.2 98.7V98.7C249.2 106.487 242.887 112.8 235.1 112.8H188.54C180.753 112.8 174.44 119.113 174.44 126.9V126.9C174.44 134.687 180.753 141 188.54 141H434.46C442.247 141 448.56 134.687 448.56 126.9V126.9C448.56 119.113 442.247 112.8 434.46 112.8H387.9C380.113 112.8 373.8 106.487 373.8 98.7V98.7C373.8 90.9128 380.113 84.6 387.9 84.6H608.9C616.687 84.6 623 78.2872 623 70.5V70.5C623 62.7128 616.687 56.4 608.9 56.4H437.74C429.953 56.4 423.64 50.0872 423.64 42.3V42.3C423.64 34.5128 417.327 28.2 409.54 28.2H313.14C305.353 28.2 299.04 21.8872 299.04 14.1V14.1C299.04 6.31278 292.727 0 284.94 0L88.86 0Z" fill="#ACDCF8" fill-opacity="0.9"/>
</svg>
