<svg width="500" height="138" viewBox="0 0 500 138" fill="none" xmlns="http://www.w3.org/2000/svg">
<path opacity="0.95" d="M14.2743 55.1971C6.8328 55.197 0.731077 61.0966 0.480552 68.5339V68.5339C0.217808 76.334 6.46972 82.8 14.2742 82.8L99.8364 82.8001C107.458 82.8001 113.636 88.9786 113.636 96.6001V96.6001C113.636 104.222 119.815 110.4 127.436 110.4H190.745C198.367 110.4 204.545 116.578 204.545 124.2V124.2C204.545 131.822 210.724 138 218.345 138H304.382C312.003 138 318.182 131.822 318.182 124.2V124.2C318.182 116.578 324.36 110.4 331.982 110.4H372.564C380.185 110.4 386.364 104.222 386.364 96.6V96.6C386.364 88.9785 392.542 82.8 400.164 82.8H486.199C493.821 82.8 500 76.6209 500 68.9986V68.9986C500 61.3763 493.821 55.1972 486.199 55.1972L400.162 55.1971C392.541 55.1971 386.364 49.0193 386.364 41.3986V41.3986C386.364 33.7779 380.186 27.6001 372.565 27.6L331.982 27.6C324.36 27.6 318.182 21.4215 318.182 13.8V13.8C318.182 6.17848 312.003 0 304.382 0H172.891C165.269 0 159.091 6.17847 159.091 13.8V13.8C159.091 21.4215 165.269 27.6 172.891 27.6H236.172C243.794 27.6 249.972 33.7784 249.972 41.3999V41.3999C249.972 49.0215 243.794 55.1999 236.172 55.1998L14.2743 55.1971Z" fill="#91D0D9"/>
</svg>
