<svg width="622" height="135" viewBox="0 0 622 135" fill="none" xmlns="http://www.w3.org/2000/svg">
<path opacity="0.9" d="M88.14 0C80.6842 0 74.64 6.04416 74.64 13.5V13.5C74.64 20.9558 80.6842 27 88.14 27H135.78C143.236 27 149.28 33.0442 149.28 40.5V40.5C149.28 47.9558 143.236 54 135.78 54H13.5C6.04417 54 0 60.0442 0 67.5V67.5C0 74.9558 6.04416 81 13.5 81H235.3C242.756 81 248.8 87.0442 248.8 94.5V94.5C248.8 101.956 242.756 108 235.3 108H187.66C180.204 108 174.16 114.044 174.16 121.5V121.5C174.16 128.956 180.204 135 187.66 135H434.34C441.796 135 447.84 128.956 447.84 121.5V121.5C447.84 114.044 441.796 108 434.34 108H386.7C379.244 108 373.2 101.956 373.2 94.5V94.5C373.2 87.0442 379.244 81 386.7 81H608.5C615.956 81 622 74.9558 622 67.5V67.5C622 60.0442 615.956 54 608.5 54H436.46C429.004 54 422.96 47.9558 422.96 40.5V40.5C422.96 33.0442 416.916 27 409.46 27H312.06C304.604 27 298.56 20.9558 298.56 13.5V13.5C298.56 6.04416 292.516 0 285.06 0L88.14 0Z" fill="#8F9CC7"/>
</svg>
